<svg xmlns="http://www.w3.org/2000/svg" xmlns:xlink="http://www.w3.org/1999/xlink" width="250" zoomAndPan="magnify" viewBox="0 0 187.5 74.999997" height="100" preserveAspectRatio="xMidYMid meet" version="1.0"><defs><g/><clipPath id="3abaf64261"><path d="M 69 7.601562 L 151 7.601562 L 151 21 L 69 21 Z M 69 7.601562 " clip-rule="nonzero"/></clipPath><clipPath id="da6eda8aeb"><path d="M 70.125 28.777344 L 114.582031 28.777344 L 114.582031 37.601562 L 70.125 37.601562 Z M 70.125 28.777344 " clip-rule="nonzero"/></clipPath><clipPath id="4ce0b65b25"><path d="M 24.226562 16.179688 L 157.964844 16.179688 L 157.964844 31.203125 L 24.226562 31.203125 Z M 24.226562 16.179688 " clip-rule="nonzero"/></clipPath></defs><path fill="#fafafa" d="M 39.234375 24.261719 C 39.21875 24.222656 39.171875 24.203125 39.128906 24.21875 C 38.25 24.585938 37.382812 24.980469 36.527344 25.394531 C 35.667969 25.808594 34.816406 26.242188 33.980469 26.707031 C 33.140625 27.171875 32.316406 27.664062 31.511719 28.214844 C 31.113281 28.492188 30.71875 28.785156 30.332031 29.101562 C 30.019531 29.367188 29.710938 29.648438 29.417969 29.964844 C 29.394531 29.96875 29.375 29.972656 29.351562 29.976562 C 29.203125 30 29.054688 30.03125 28.90625 30.066406 C 28.617188 30.132812 28.328125 30.210938 28.046875 30.3125 C 27.484375 30.507812 26.9375 30.773438 26.507812 31.164062 L 26.496094 31.171875 C 26.476562 31.191406 26.472656 31.222656 26.488281 31.246094 C 26.503906 31.277344 26.539062 31.285156 26.570312 31.269531 C 27.03125 30.984375 27.574219 30.835938 28.113281 30.75 C 28.382812 30.707031 28.660156 30.683594 28.933594 30.667969 C 29.210938 30.65625 29.488281 30.65625 29.757812 30.675781 L 29.800781 30.679688 L 29.828125 30.644531 C 30.410156 29.902344 31.136719 29.285156 31.882812 28.707031 C 32.632812 28.132812 33.417969 27.601562 34.222656 27.101562 C 35.023438 26.597656 35.84375 26.125 36.671875 25.667969 C 37.503906 25.214844 38.34375 24.777344 39.195312 24.367188 C 39.234375 24.347656 39.25 24.300781 39.234375 24.261719 " fill-opacity="1" fill-rule="nonzero"/><path fill="#fafafa" d="M 27.898438 29.792969 C 27.902344 29.792969 27.90625 29.792969 27.910156 29.789062 L 32.496094 27.042969 C 32.503906 27.039062 32.507812 27.027344 32.503906 27.019531 C 32.5 27.007812 32.488281 27.003906 32.476562 27.007812 C 29.867188 27.992188 27.90625 29.738281 27.886719 29.757812 C 27.878906 29.765625 27.878906 29.777344 27.882812 29.785156 C 27.886719 29.789062 27.894531 29.792969 27.898438 29.792969 " fill-opacity="1" fill-rule="nonzero"/><path fill="#fafafa" d="M 156.917969 19.835938 C 156.914062 19.832031 156.90625 19.828125 156.902344 19.832031 C 156.84375 19.84375 151.3125 21.082031 148.589844 21.082031 C 148.578125 21.082031 148.570312 21.089844 148.570312 21.101562 C 148.570312 21.113281 148.578125 21.121094 148.589844 21.121094 C 148.644531 21.125 154.269531 21.1875 154.511719 22.613281 C 154.761719 24.074219 153.65625 30.699219 153.648438 30.765625 C 153.644531 30.777344 153.652344 30.785156 153.664062 30.789062 C 153.664062 30.789062 153.664062 30.789062 153.667969 30.789062 C 153.675781 30.789062 153.683594 30.785156 153.6875 30.773438 L 156.925781 19.855469 C 156.925781 19.847656 156.925781 19.84375 156.917969 19.835938 " fill-opacity="1" fill-rule="nonzero"/><g clip-path="url(#3abaf64261)"><path fill="#fafafa" d="M 71.46875 20.582031 C 71.992188 20.167969 72.527344 19.765625 73.074219 19.371094 C 74.605469 18.261719 76.191406 17.230469 77.824219 16.285156 C 81.089844 14.390625 84.542969 12.835938 88.109375 11.695312 C 91.679688 10.550781 95.371094 9.832031 99.082031 9.597656 C 100.011719 9.539062 100.933594 9.511719 101.875 9.511719 C 102.789062 9.511719 103.730469 9.546875 104.660156 9.597656 C 106.519531 9.703125 108.378906 9.917969 110.230469 10.210938 C 110.617188 10.269531 110.996094 10.335938 111.378906 10.402344 L 109.40625 19.914062 C 109.464844 19.914062 109.519531 19.910156 109.574219 19.910156 L 109.589844 19.910156 C 109.609375 19.910156 109.632812 19.90625 109.65625 19.90625 C 109.710938 19.90625 109.769531 19.90625 109.828125 19.902344 C 109.851562 19.902344 109.878906 19.902344 109.902344 19.902344 C 110.914062 19.875 111.8125 19.847656 112.644531 19.824219 L 112.652344 19.824219 L 113.167969 19.808594 L 113.199219 19.808594 L 113.324219 19.804688 C 113.359375 19.804688 113.394531 19.804688 113.429688 19.800781 C 113.484375 19.800781 113.535156 19.796875 113.589844 19.796875 C 113.621094 19.796875 113.652344 19.792969 113.683594 19.792969 C 113.070312 18.601562 112.425781 16.039062 113.148438 10.738281 C 115.867188 11.289062 118.574219 11.988281 121.269531 12.761719 C 123.828125 13.492188 126.378906 14.292969 128.945312 15.089844 C 125.464844 17.855469 120.230469 19.125 116.625 19.699219 C 117.070312 19.6875 117.511719 19.671875 117.957031 19.65625 L 118.378906 19.640625 C 118.859375 19.625 119.34375 19.605469 119.828125 19.589844 C 121.179688 19.539062 122.535156 19.488281 123.882812 19.433594 C 130.726562 19.144531 135.960938 18.839844 140.855469 18.453125 C 140.933594 18.449219 141.011719 18.441406 141.09375 18.433594 C 141.457031 18.40625 141.824219 18.375 142.191406 18.34375 C 143.011719 18.273438 143.785156 18.203125 144.53125 18.128906 C 144.777344 18.105469 145.015625 18.082031 145.257812 18.058594 C 145.324219 18.050781 145.386719 18.046875 145.453125 18.039062 C 145.628906 18.023438 145.808594 18.003906 145.984375 17.984375 C 146.046875 17.976562 146.109375 17.972656 146.167969 17.964844 C 146.40625 17.941406 146.640625 17.914062 146.882812 17.886719 C 147.683594 17.800781 148.496094 17.703125 149.300781 17.601562 C 149.636719 17.558594 149.957031 17.515625 150.269531 17.472656 C 150.074219 17.472656 149.882812 17.472656 149.6875 17.46875 C 147.785156 17.445312 145.878906 17.238281 143.996094 16.929688 C 140.21875 16.304688 136.515625 15.277344 132.832031 14.195312 C 129.148438 13.109375 125.480469 11.949219 121.769531 10.921875 C 118.0625 9.894531 114.308594 8.988281 110.496094 8.414062 C 106.6875 7.839844 102.804688 7.605469 98.953125 7.914062 C 95.101562 8.210938 91.296875 9.011719 87.632812 10.242188 C 83.96875 11.46875 80.449219 13.117188 77.132812 15.101562 C 75.472656 16.097656 73.863281 17.171875 72.3125 18.332031 C 71.535156 18.910156 70.777344 19.511719 70.03125 20.132812 C 69.847656 20.292969 69.660156 20.449219 69.476562 20.613281 C 70 20.605469 70.523438 20.597656 71.050781 20.589844 L 71.46875 20.582031 " fill-opacity="1" fill-rule="nonzero"/></g><path fill="#fafafa" d="M 77.582031 20.496094 L 77.660156 20.496094 L 78.53125 20.484375 L 78.625 20.480469 L 78.847656 20.480469 L 78.972656 20.476562 C 79.261719 20.246094 79.644531 20.199219 79.660156 20.195312 L 81.542969 20.195312 C 81.929688 20.195312 82.378906 20 82.378906 19.449219 L 82.378906 18.175781 C 82.378906 17.765625 81.863281 17.65625 81.554688 17.65625 L 79.6875 17.65625 C 78.921875 17.65625 78.339844 17.867188 77.964844 18.285156 C 77.445312 18.855469 77.5 19.597656 77.503906 19.621094 L 77.5 20.496094 L 77.582031 20.496094 " fill-opacity="1" fill-rule="nonzero"/><path fill="#fafafa" d="M 46.621094 24.667969 C 41.992188 24.667969 37.695312 27.507812 35.675781 31.898438 C 35.636719 31.976562 35.667969 32.070312 35.746094 32.109375 C 35.820312 32.152344 35.914062 32.125 35.957031 32.046875 C 38.082031 28.363281 42.167969 26.078125 46.621094 26.078125 C 51.070312 26.078125 55.15625 28.363281 57.285156 32.046875 C 57.3125 32.101562 57.367188 32.128906 57.421875 32.128906 C 57.421875 32.128906 57.421875 32.128906 57.425781 32.128906 C 57.511719 32.128906 57.585938 32.058594 57.585938 31.96875 C 57.585938 31.933594 57.574219 31.898438 57.554688 31.871094 C 55.527344 27.496094 51.238281 24.667969 46.621094 24.667969 " fill-opacity="1" fill-rule="nonzero"/><path fill="#fafafa" d="M 134.707031 23.820312 C 130.078125 23.820312 125.78125 26.660156 123.757812 31.050781 C 123.722656 31.128906 123.753906 31.222656 123.832031 31.261719 C 123.90625 31.300781 124 31.277344 124.042969 31.199219 C 126.167969 27.515625 130.253906 25.230469 134.707031 25.230469 C 139.15625 25.230469 143.242188 27.515625 145.367188 31.199219 C 145.398438 31.253906 145.453125 31.28125 145.507812 31.28125 C 145.507812 31.28125 145.507812 31.28125 145.511719 31.28125 C 145.597656 31.28125 145.671875 31.207031 145.671875 31.117188 C 145.671875 31.082031 145.660156 31.050781 145.640625 31.023438 C 143.613281 26.648438 139.324219 23.820312 134.707031 23.820312 " fill-opacity="1" fill-rule="nonzero"/><g clip-path="url(#da6eda8aeb)"><path fill="#fafafa" d="M 114.25 28.832031 L 114.226562 28.855469 C 112.921875 30.300781 111.429688 31.378906 109.800781 32.1875 C 108.175781 33.007812 106.445312 33.601562 104.664062 34.066406 C 102.886719 34.53125 101.039062 34.859375 99.203125 34.984375 L 96.335938 35.128906 L 93.449219 35.308594 C 91.523438 35.429688 89.601562 35.535156 87.675781 35.683594 C 85.753906 35.828125 83.828125 35.957031 81.90625 36.128906 L 79.023438 36.375 L 76.140625 36.652344 C 74.21875 36.835938 72.296875 37.050781 70.378906 37.285156 L 70.367188 37.285156 C 70.285156 37.296875 70.222656 37.367188 70.226562 37.453125 C 70.230469 37.542969 70.304688 37.613281 70.394531 37.609375 L 93.503906 36.589844 L 99.285156 36.335938 C 101.21875 36.207031 103.140625 35.898438 105.015625 35.394531 C 106.886719 34.882812 108.71875 34.171875 110.382812 33.140625 C 111.210938 32.628906 111.992188 32.03125 112.695312 31.339844 C 113.394531 30.65625 114.011719 29.875 114.503906 29.019531 C 114.542969 28.957031 114.53125 28.871094 114.472656 28.820312 C 114.410156 28.761719 114.308594 28.765625 114.25 28.832031 " fill-opacity="1" fill-rule="nonzero"/></g><g clip-path="url(#4ce0b65b25)"><path fill="#fafafa" d="M 157.640625 16.285156 C 156.820312 16.558594 155.976562 16.777344 155.125 16.960938 C 155.082031 16.972656 155.039062 16.980469 154.992188 16.992188 C 154.507812 17.097656 154.027344 17.191406 153.539062 17.28125 C 152.148438 17.535156 150.746094 17.738281 149.34375 17.921875 C 148.535156 18.027344 147.726562 18.121094 146.914062 18.207031 C 146.675781 18.234375 146.441406 18.261719 146.203125 18.285156 C 145.960938 18.3125 145.722656 18.335938 145.480469 18.359375 C 144.394531 18.472656 143.308594 18.570312 142.21875 18.664062 C 141.773438 18.703125 141.328125 18.738281 140.882812 18.777344 C 135.230469 19.222656 129.5625 19.515625 123.894531 19.757812 C 121.917969 19.835938 119.945312 19.910156 117.96875 19.980469 C 117.316406 20 116.667969 20.023438 116.015625 20.042969 L 116.011719 20.042969 C 115.296875 20.066406 114.582031 20.089844 113.867188 20.113281 C 113.777344 20.113281 113.6875 20.117188 113.597656 20.121094 C 113.507812 20.121094 113.417969 20.125 113.328125 20.128906 C 113.121094 20.132812 112.910156 20.136719 112.703125 20.144531 C 112.6875 20.144531 112.671875 20.148438 112.65625 20.148438 C 111.714844 20.175781 110.773438 20.203125 109.835938 20.226562 C 109.753906 20.230469 109.671875 20.230469 109.589844 20.234375 C 109.503906 20.234375 109.421875 20.238281 109.339844 20.238281 C 102.847656 20.414062 96.351562 20.535156 89.859375 20.644531 L 78.710938 20.804688 L 78.539062 20.804688 L 77.660156 20.820312 L 77.5 20.820312 L 72.835938 20.886719 L 71.054688 20.914062 C 70.402344 20.921875 69.75 20.933594 69.097656 20.941406 C 64.667969 21.003906 60.238281 21.070312 55.808594 21.171875 C 52.96875 21.242188 50.128906 21.316406 47.292969 21.476562 C 44.449219 21.644531 41.609375 22 38.824219 22.617188 C 36.039062 23.238281 33.296875 24.121094 30.726562 25.390625 C 29.441406 26.027344 28.199219 26.761719 27.039062 27.617188 C 26.460938 28.042969 25.902344 28.5 25.375 28.996094 C 25.109375 29.246094 24.855469 29.503906 24.609375 29.773438 C 24.535156 29.855469 24.464844 29.9375 24.390625 30.019531 C 24.121094 30.335938 24.1875 30.816406 24.53125 31.046875 L 24.71875 31.171875 C 24.75 31.128906 24.800781 31.058594 24.847656 31 C 24.894531 30.933594 24.949219 30.871094 25 30.8125 C 25.105469 30.683594 25.214844 30.558594 25.328125 30.4375 C 25.554688 30.195312 25.796875 29.957031 26.046875 29.726562 C 26.542969 29.265625 27.078125 28.835938 27.632812 28.4375 C 28.746094 27.632812 29.941406 26.941406 31.1875 26.339844 C 33.675781 25.140625 36.347656 24.308594 39.066406 23.730469 C 41.789062 23.15625 44.570312 22.835938 47.363281 22.699219 C 50.171875 22.566406 53.007812 22.519531 55.839844 22.480469 C 59.941406 22.425781 64.050781 22.398438 68.160156 22.382812 C 68.550781 22.378906 68.9375 22.378906 69.328125 22.375 C 70.503906 22.371094 71.679688 22.367188 72.855469 22.363281 L 89.882812 22.28125 C 101.242188 22.207031 112.601562 22.082031 123.976562 21.726562 C 129.660156 21.542969 135.351562 21.304688 141.050781 20.910156 C 143.902344 20.707031 146.753906 20.464844 149.621094 20.128906 C 151.054688 19.957031 152.488281 19.761719 153.9375 19.511719 C 154.664062 19.382812 155.390625 19.246094 156.125 19.078125 C 156.375 19.023438 156.628906 18.960938 156.882812 18.898438 C 157.695312 18.695312 158.15625 17.824219 157.886719 17.023438 L 157.640625 16.285156 " fill-opacity="1" fill-rule="nonzero"/></g><g fill="#fafafa" fill-opacity="1"><g transform="translate(4.631396, 48.810447)"><g><path d="M 4.21875 -19.859375 L 17.390625 -19.859375 L 16.890625 -17.484375 L 10.5 -17.484375 L 9.1875 -11.4375 L 14.53125 -11.4375 L 14.03125 -9.09375 L 8.6875 -9.09375 L 7.25 -2.40625 L 13.625 -2.40625 L 13.15625 0 L 0 0 Z M 4.21875 -19.859375 "/></g></g></g><g fill="#fafafa" fill-opacity="1"><g transform="translate(20.35879, 48.810447)"><g><path d="M 4.21875 -19.859375 L 11 -19.859375 L 7.3125 -2.625 L 13.65625 -2.625 L 13.125 0 L 0 0 Z M 4.21875 -19.859375 "/></g></g></g><g fill="#fafafa" fill-opacity="1"><g transform="translate(35.429575, 48.810447)"><g><path d="M 1.5625 -8 L 11.40625 -8 L 10.78125 -5.15625 L 0.90625 -5.15625 Z M 1.5625 -8 "/></g></g></g><g fill="#fafafa" fill-opacity="1"><g transform="translate(48.405457, 48.810447)"><g><path d="M 6.75 0 L 0 0 L 4.21875 -19.859375 L 11 -19.859375 Z M 6.75 0 "/></g></g></g><g fill="#fafafa" fill-opacity="1"><g transform="translate(58.598562, 48.810447)"><g><path d="M 19.046875 -17.484375 L 14 -17.484375 L 10.28125 0 L 3.53125 0 L 7.25 -17.484375 L 2.28125 -17.484375 L 2.84375 -19.859375 L 19.578125 -19.859375 Z M 19.046875 -17.484375 "/></g></g></g><g fill="#fafafa" fill-opacity="1"><g transform="translate(75.951854, 48.810447)"><g/></g></g><g fill="#fafafa" fill-opacity="1"><g transform="translate(81.923889, 48.810447)"><g><path d="M 17.328125 0 L 10 0 L 9.5625 -4.96875 L 3.78125 -4.96875 L 1.5625 0 L -1.46875 0 L 7.75 -19.859375 L 15.15625 -19.859375 Z M 4.8125 -7.25 L 9.34375 -7.25 L 8.625 -15.765625 Z M 4.8125 -7.25 "/></g></g></g><g fill="#fafafa" fill-opacity="1"><g transform="translate(100.74674, 48.810447)"><g><path d="M 8.34375 -7.09375 C 8.238281 -6.632812 8.15625 -6.238281 8.09375 -5.90625 C 8.03125 -5.570312 8 -5.257812 8 -4.96875 C 8 -4.238281 8.253906 -3.65625 8.765625 -3.21875 C 9.273438 -2.78125 10.03125 -2.5625 11.03125 -2.5625 C 11.757812 -2.5625 12.359375 -2.6875 12.828125 -2.9375 C 13.296875 -3.1875 13.679688 -3.519531 13.984375 -3.9375 C 14.285156 -4.351562 14.523438 -4.832031 14.703125 -5.375 C 14.878906 -5.914062 15.03125 -6.488281 15.15625 -7.09375 L 17.828125 -19.859375 L 20.671875 -19.859375 L 17.953125 -7.03125 C 17.742188 -6.03125 17.441406 -5.09375 17.046875 -4.21875 C 16.648438 -3.34375 16.078125 -2.570312 15.328125 -1.90625 C 14.585938 -1.238281 13.632812 -0.710938 12.46875 -0.328125 C 11.300781 0.0546875 9.851562 0.25 8.125 0.25 C 5.726562 0.25 3.957031 -0.140625 2.8125 -0.921875 C 1.664062 -1.703125 1.09375 -2.90625 1.09375 -4.53125 C 1.09375 -5.257812 1.1875 -6.1875 1.375 -7.3125 C 1.5625 -8.4375 1.800781 -9.65625 2.09375 -10.96875 L 4 -19.859375 L 11.09375 -19.859375 Z M 8.34375 -7.09375 "/></g></g></g><g fill="#fafafa" fill-opacity="1"><g transform="translate(120.445069, 48.810447)"><g><path d="M 19.046875 -17.484375 L 14 -17.484375 L 10.28125 0 L 3.53125 0 L 7.25 -17.484375 L 2.28125 -17.484375 L 2.84375 -19.859375 L 19.578125 -19.859375 Z M 19.046875 -17.484375 "/></g></g></g><g fill="#fafafa" fill-opacity="1"><g transform="translate(137.798368, 48.810447)"><g><path d="M 12.84375 -20.171875 C 14.644531 -20.171875 16.101562 -19.941406 17.21875 -19.484375 C 18.332031 -19.023438 19.210938 -18.316406 19.859375 -17.359375 C 20.273438 -16.710938 20.597656 -15.976562 20.828125 -15.15625 C 21.054688 -14.34375 21.171875 -13.40625 21.171875 -12.34375 C 21.171875 -11.425781 21.085938 -10.507812 20.921875 -9.59375 C 20.753906 -8.675781 20.519531 -7.796875 20.21875 -6.953125 C 19.914062 -6.109375 19.550781 -5.316406 19.125 -4.578125 C 18.695312 -3.835938 18.222656 -3.1875 17.703125 -2.625 C 16.722656 -1.5625 15.585938 -0.816406 14.296875 -0.390625 C 13.015625 0.0351562 11.4375 0.25 9.5625 0.25 C 7.75 0.25 6.289062 0.0625 5.1875 -0.3125 C 4.082031 -0.6875 3.207031 -1.289062 2.5625 -2.125 C 2.101562 -2.707031 1.742188 -3.445312 1.484375 -4.34375 C 1.222656 -5.238281 1.09375 -6.363281 1.09375 -7.71875 C 1.09375 -10.03125 1.503906 -12.097656 2.328125 -13.921875 C 3.148438 -15.753906 4.320312 -17.203125 5.84375 -18.265625 C 6.757812 -18.910156 7.78125 -19.390625 8.90625 -19.703125 C 10.03125 -20.015625 11.34375 -20.171875 12.84375 -20.171875 Z M 9.3125 -1.9375 C 9.789062 -1.9375 10.242188 -2.148438 10.671875 -2.578125 C 11.097656 -3.003906 11.492188 -3.578125 11.859375 -4.296875 C 12.222656 -5.015625 12.554688 -5.832031 12.859375 -6.75 C 13.160156 -7.664062 13.414062 -8.613281 13.625 -9.59375 C 13.832031 -10.570312 13.992188 -11.546875 14.109375 -12.515625 C 14.222656 -13.484375 14.28125 -14.363281 14.28125 -15.15625 C 14.28125 -16.25 14.171875 -17 13.953125 -17.40625 C 13.734375 -17.8125 13.414062 -18.015625 13 -18.015625 C 12.519531 -18.015625 12.0625 -17.804688 11.625 -17.390625 C 11.1875 -16.972656 10.773438 -16.410156 10.390625 -15.703125 C 10.003906 -15.003906 9.660156 -14.203125 9.359375 -13.296875 C 9.054688 -12.390625 8.796875 -11.457031 8.578125 -10.5 C 8.359375 -9.539062 8.191406 -8.59375 8.078125 -7.65625 C 7.960938 -6.71875 7.90625 -5.851562 7.90625 -5.0625 C 7.90625 -3.875 8.035156 -3.054688 8.296875 -2.609375 C 8.554688 -2.160156 8.894531 -1.9375 9.3125 -1.9375 Z M 9.3125 -1.9375 "/></g></g></g><g fill="#fafafa" fill-opacity="1"><g transform="translate(159.216383, 48.810447)"><g><path d="M 12.3125 -14.09375 C 12.375 -14.40625 12.40625 -14.832031 12.40625 -15.375 C 12.40625 -15.695312 12.382812 -16.007812 12.34375 -16.3125 C 12.300781 -16.613281 12.226562 -16.882812 12.125 -17.125 C 12.019531 -17.363281 11.863281 -17.550781 11.65625 -17.6875 C 11.445312 -17.820312 11.175781 -17.890625 10.84375 -17.890625 C 10.46875 -17.890625 10.125 -17.804688 9.8125 -17.640625 C 9.5 -17.472656 9.222656 -17.257812 8.984375 -17 C 8.742188 -16.738281 8.554688 -16.4375 8.421875 -16.09375 C 8.285156 -15.75 8.21875 -15.382812 8.21875 -15 C 8.21875 -14.457031 8.359375 -14.039062 8.640625 -13.75 C 8.921875 -13.457031 9.289062 -13.21875 9.75 -13.03125 C 10.207031 -12.84375 10.726562 -12.6875 11.3125 -12.5625 C 11.894531 -12.4375 12.5 -12.289062 13.125 -12.125 C 13.644531 -11.976562 14.164062 -11.789062 14.6875 -11.5625 C 15.207031 -11.332031 15.671875 -11.023438 16.078125 -10.640625 C 16.492188 -10.253906 16.828125 -9.753906 17.078125 -9.140625 C 17.328125 -8.523438 17.453125 -7.757812 17.453125 -6.84375 C 17.453125 -5.53125 17.191406 -4.425781 16.671875 -3.53125 C 16.148438 -2.632812 15.425781 -1.90625 14.5 -1.34375 C 13.582031 -0.78125 12.492188 -0.375 11.234375 -0.125 C 9.972656 0.125 8.601562 0.25 7.125 0.25 C 5.625 0.25 4.398438 0.148438 3.453125 -0.046875 C 2.503906 -0.242188 1.757812 -0.457031 1.21875 -0.6875 C 0.570312 -0.957031 0.09375 -1.269531 -0.21875 -1.625 L 0.84375 -5.90625 L 6.34375 -5.90625 C 6.320312 -5.71875 6.300781 -5.460938 6.28125 -5.140625 C 6.257812 -4.816406 6.25 -4.5625 6.25 -4.375 C 6.25 -4.125 6.28125 -3.863281 6.34375 -3.59375 C 6.40625 -3.320312 6.503906 -3.070312 6.640625 -2.84375 C 6.773438 -2.613281 6.96875 -2.425781 7.21875 -2.28125 C 7.46875 -2.132812 7.78125 -2.0625 8.15625 -2.0625 C 8.570312 -2.0625 8.941406 -2.15625 9.265625 -2.34375 C 9.585938 -2.53125 9.859375 -2.765625 10.078125 -3.046875 C 10.296875 -3.328125 10.460938 -3.640625 10.578125 -3.984375 C 10.691406 -4.328125 10.75 -4.664062 10.75 -5 C 10.75 -5.457031 10.640625 -5.84375 10.421875 -6.15625 C 10.203125 -6.46875 9.90625 -6.734375 9.53125 -6.953125 C 9.15625 -7.171875 8.722656 -7.359375 8.234375 -7.515625 C 7.742188 -7.671875 7.238281 -7.832031 6.71875 -8 C 6.21875 -8.144531 5.691406 -8.320312 5.140625 -8.53125 C 4.585938 -8.738281 4.082031 -9.03125 3.625 -9.40625 C 3.164062 -9.78125 2.785156 -10.253906 2.484375 -10.828125 C 2.179688 -11.398438 2.03125 -12.132812 2.03125 -13.03125 C 2.03125 -14.363281 2.367188 -15.484375 3.046875 -16.390625 C 3.722656 -17.304688 4.578125 -18.046875 5.609375 -18.609375 C 6.640625 -19.171875 7.769531 -19.570312 9 -19.8125 C 10.226562 -20.050781 11.394531 -20.171875 12.5 -20.171875 C 13.957031 -20.171875 15.210938 -20 16.265625 -19.65625 C 17.328125 -19.3125 18.128906 -18.910156 18.671875 -18.453125 L 17.515625 -14.09375 Z M 12.3125 -14.09375 "/></g></g></g><g fill="#fafafa" fill-opacity="1"><g transform="translate(22.6475, 63.955517)"><g><path d="M 2 0.140625 C 1.59375 0.140625 1.226562 0.0507812 0.90625 -0.125 C 0.582031 -0.3125 0.320312 -0.578125 0.125 -0.921875 L 0.921875 -1.59375 C 1.191406 -1.101562 1.546875 -0.859375 1.984375 -0.859375 C 2.179688 -0.859375 2.34375 -0.90625 2.46875 -1 C 2.59375 -1.101562 2.65625 -1.234375 2.65625 -1.390625 C 2.65625 -1.535156 2.59375 -1.660156 2.46875 -1.765625 C 2.351562 -1.867188 2.140625 -1.988281 1.828125 -2.125 C 1.335938 -2.34375 0.984375 -2.582031 0.765625 -2.84375 C 0.546875 -3.101562 0.4375 -3.414062 0.4375 -3.78125 C 0.4375 -4.007812 0.476562 -4.21875 0.5625 -4.40625 C 0.644531 -4.601562 0.757812 -4.769531 0.90625 -4.90625 C 1.0625 -5.050781 1.242188 -5.160156 1.453125 -5.234375 C 1.660156 -5.304688 1.890625 -5.34375 2.140625 -5.34375 C 2.796875 -5.34375 3.351562 -5.0625 3.8125 -4.5 L 3.0625 -3.8125 C 2.914062 -4 2.769531 -4.140625 2.625 -4.234375 C 2.476562 -4.328125 2.316406 -4.375 2.140625 -4.375 C 1.960938 -4.375 1.820312 -4.328125 1.71875 -4.234375 C 1.625 -4.148438 1.578125 -4.035156 1.578125 -3.890625 C 1.578125 -3.734375 1.644531 -3.601562 1.78125 -3.5 C 1.914062 -3.394531 2.117188 -3.28125 2.390625 -3.15625 C 2.878906 -2.9375 3.234375 -2.691406 3.453125 -2.421875 C 3.679688 -2.160156 3.796875 -1.847656 3.796875 -1.484375 C 3.796875 -1.242188 3.75 -1.023438 3.65625 -0.828125 C 3.570312 -0.628906 3.453125 -0.457031 3.296875 -0.3125 C 3.140625 -0.164062 2.945312 -0.0546875 2.71875 0.015625 C 2.5 0.0976562 2.257812 0.140625 2 0.140625 Z M 2 0.140625 "/></g></g></g><g fill="#fafafa" fill-opacity="1"><g transform="translate(31.664056, 63.955517)"><g><path d="M 2.140625 -5.328125 L 2.875 -5.328125 L 4.9375 0 L 3.734375 0 L 3.40625 -0.890625 L 1.609375 -0.890625 L 1.296875 0 L 0.078125 0 Z M 3.0625 -1.875 L 2.515625 -3.40625 L 1.953125 -1.875 Z M 3.0625 -1.875 "/></g></g></g><g fill="#fafafa" fill-opacity="1"><g transform="translate(41.602093, 63.955517)"><g><path d="M 0.59375 -5.234375 L 1.734375 -5.234375 L 1.734375 -1.078125 L 3.546875 -1.078125 L 3.546875 0 L 0.59375 0 Z M 0.59375 -5.234375 "/></g></g></g><g fill="#fafafa" fill-opacity="1"><g transform="translate(50.306282, 63.955517)"><g><path d="M 0.59375 -5.234375 L 3.578125 -5.234375 L 3.578125 -4.171875 L 1.734375 -4.171875 L 1.734375 -3.203125 L 3.078125 -3.203125 L 3.078125 -2.140625 L 1.734375 -2.140625 L 1.734375 -1.078125 L 3.625 -1.078125 L 3.625 0 L 0.59375 0 Z M 0.59375 -5.234375 "/></g></g></g><g fill="#fafafa" fill-opacity="1"><g transform="translate(59.24475, 63.955517)"><g><path d="M 2 0.140625 C 1.59375 0.140625 1.226562 0.0507812 0.90625 -0.125 C 0.582031 -0.3125 0.320312 -0.578125 0.125 -0.921875 L 0.921875 -1.59375 C 1.191406 -1.101562 1.546875 -0.859375 1.984375 -0.859375 C 2.179688 -0.859375 2.34375 -0.90625 2.46875 -1 C 2.59375 -1.101562 2.65625 -1.234375 2.65625 -1.390625 C 2.65625 -1.535156 2.59375 -1.660156 2.46875 -1.765625 C 2.351562 -1.867188 2.140625 -1.988281 1.828125 -2.125 C 1.335938 -2.34375 0.984375 -2.582031 0.765625 -2.84375 C 0.546875 -3.101562 0.4375 -3.414062 0.4375 -3.78125 C 0.4375 -4.007812 0.476562 -4.21875 0.5625 -4.40625 C 0.644531 -4.601562 0.757812 -4.769531 0.90625 -4.90625 C 1.0625 -5.050781 1.242188 -5.160156 1.453125 -5.234375 C 1.660156 -5.304688 1.890625 -5.34375 2.140625 -5.34375 C 2.796875 -5.34375 3.351562 -5.0625 3.8125 -4.5 L 3.0625 -3.8125 C 2.914062 -4 2.769531 -4.140625 2.625 -4.234375 C 2.476562 -4.328125 2.316406 -4.375 2.140625 -4.375 C 1.960938 -4.375 1.820312 -4.328125 1.71875 -4.234375 C 1.625 -4.148438 1.578125 -4.035156 1.578125 -3.890625 C 1.578125 -3.734375 1.644531 -3.601562 1.78125 -3.5 C 1.914062 -3.394531 2.117188 -3.28125 2.390625 -3.15625 C 2.878906 -2.9375 3.234375 -2.691406 3.453125 -2.421875 C 3.679688 -2.160156 3.796875 -1.847656 3.796875 -1.484375 C 3.796875 -1.242188 3.75 -1.023438 3.65625 -0.828125 C 3.570312 -0.628906 3.453125 -0.457031 3.296875 -0.3125 C 3.140625 -0.164062 2.945312 -0.0546875 2.71875 0.015625 C 2.5 0.0976562 2.257812 0.140625 2 0.140625 Z M 2 0.140625 "/></g></g></g><g fill="#fafafa" fill-opacity="1"><g transform="translate(68.261304, 63.955517)"><g/></g></g><g fill="#fafafa" fill-opacity="1"><g transform="translate(74.91169, 63.955517)"><g><path d="M 3.796875 -0.609375 C 3.566406 -0.378906 3.304688 -0.203125 3.015625 -0.078125 C 2.722656 0.046875 2.410156 0.109375 2.078125 0.109375 C 1.796875 0.109375 1.539062 0.0664062 1.3125 -0.015625 C 1.082031 -0.0976562 0.882812 -0.207031 0.71875 -0.34375 C 0.5625 -0.488281 0.4375 -0.660156 0.34375 -0.859375 C 0.25 -1.054688 0.203125 -1.273438 0.203125 -1.515625 C 0.203125 -1.828125 0.285156 -2.117188 0.453125 -2.390625 C 0.617188 -2.660156 0.867188 -2.882812 1.203125 -3.0625 C 1.066406 -3.207031 0.960938 -3.359375 0.890625 -3.515625 C 0.828125 -3.671875 0.796875 -3.835938 0.796875 -4.015625 C 0.796875 -4.210938 0.832031 -4.390625 0.90625 -4.546875 C 0.988281 -4.710938 1.097656 -4.851562 1.234375 -4.96875 C 1.367188 -5.082031 1.53125 -5.171875 1.71875 -5.234375 C 1.90625 -5.304688 2.109375 -5.34375 2.328125 -5.34375 C 2.554688 -5.34375 2.765625 -5.304688 2.953125 -5.234375 C 3.148438 -5.171875 3.316406 -5.070312 3.453125 -4.9375 C 3.597656 -4.8125 3.710938 -4.660156 3.796875 -4.484375 C 3.878906 -4.316406 3.921875 -4.128906 3.921875 -3.921875 L 2.78125 -3.921875 C 2.78125 -4.046875 2.738281 -4.144531 2.65625 -4.21875 C 2.582031 -4.300781 2.476562 -4.34375 2.34375 -4.34375 C 2.21875 -4.34375 2.117188 -4.304688 2.046875 -4.234375 C 1.972656 -4.171875 1.9375 -4.085938 1.9375 -3.984375 C 1.9375 -3.910156 1.953125 -3.832031 1.984375 -3.75 C 2.023438 -3.664062 2.09375 -3.578125 2.1875 -3.484375 L 3.609375 -2.140625 C 3.742188 -2.503906 3.8125 -2.910156 3.8125 -3.359375 L 5.515625 -3.359375 L 5.515625 -2.53125 L 4.75 -2.53125 C 4.6875 -2.113281 4.566406 -1.75 4.390625 -1.4375 L 5.328125 -0.5625 L 4.625 0.171875 Z M 2.171875 -0.90625 C 2.503906 -0.90625 2.804688 -1.03125 3.078125 -1.28125 L 1.875 -2.4375 C 1.707031 -2.34375 1.578125 -2.226562 1.484375 -2.09375 C 1.390625 -1.957031 1.34375 -1.804688 1.34375 -1.640625 C 1.34375 -1.410156 1.414062 -1.226562 1.5625 -1.09375 C 1.707031 -0.96875 1.910156 -0.90625 2.171875 -0.90625 Z M 2.171875 -0.90625 "/></g></g></g><g fill="#fafafa" fill-opacity="1"><g transform="translate(85.318272, 63.955517)"><g/></g></g><g fill="#fafafa" fill-opacity="1"><g transform="translate(91.968654, 63.955517)"><g><path d="M 2 0.140625 C 1.59375 0.140625 1.226562 0.0507812 0.90625 -0.125 C 0.582031 -0.3125 0.320312 -0.578125 0.125 -0.921875 L 0.921875 -1.59375 C 1.191406 -1.101562 1.546875 -0.859375 1.984375 -0.859375 C 2.179688 -0.859375 2.34375 -0.90625 2.46875 -1 C 2.59375 -1.101562 2.65625 -1.234375 2.65625 -1.390625 C 2.65625 -1.535156 2.59375 -1.660156 2.46875 -1.765625 C 2.351562 -1.867188 2.140625 -1.988281 1.828125 -2.125 C 1.335938 -2.34375 0.984375 -2.582031 0.765625 -2.84375 C 0.546875 -3.101562 0.4375 -3.414062 0.4375 -3.78125 C 0.4375 -4.007812 0.476562 -4.21875 0.5625 -4.40625 C 0.644531 -4.601562 0.757812 -4.769531 0.90625 -4.90625 C 1.0625 -5.050781 1.242188 -5.160156 1.453125 -5.234375 C 1.660156 -5.304688 1.890625 -5.34375 2.140625 -5.34375 C 2.796875 -5.34375 3.351562 -5.0625 3.8125 -4.5 L 3.0625 -3.8125 C 2.914062 -4 2.769531 -4.140625 2.625 -4.234375 C 2.476562 -4.328125 2.316406 -4.375 2.140625 -4.375 C 1.960938 -4.375 1.820312 -4.328125 1.71875 -4.234375 C 1.625 -4.148438 1.578125 -4.035156 1.578125 -3.890625 C 1.578125 -3.734375 1.644531 -3.601562 1.78125 -3.5 C 1.914062 -3.394531 2.117188 -3.28125 2.390625 -3.15625 C 2.878906 -2.9375 3.234375 -2.691406 3.453125 -2.421875 C 3.679688 -2.160156 3.796875 -1.847656 3.796875 -1.484375 C 3.796875 -1.242188 3.75 -1.023438 3.65625 -0.828125 C 3.570312 -0.628906 3.453125 -0.457031 3.296875 -0.3125 C 3.140625 -0.164062 2.945312 -0.0546875 2.71875 0.015625 C 2.5 0.0976562 2.257812 0.140625 2 0.140625 Z M 2 0.140625 "/></g></g></g><g fill="#fafafa" fill-opacity="1"><g transform="translate(100.985208, 63.955517)"><g><path d="M 0.59375 -5.234375 L 3.578125 -5.234375 L 3.578125 -4.171875 L 1.734375 -4.171875 L 1.734375 -3.203125 L 3.078125 -3.203125 L 3.078125 -2.140625 L 1.734375 -2.140625 L 1.734375 -1.078125 L 3.625 -1.078125 L 3.625 0 L 0.59375 0 Z M 0.59375 -5.234375 "/></g></g></g><g fill="#fafafa" fill-opacity="1"><g transform="translate(109.923674, 63.955517)"><g><path d="M 0.59375 -5.234375 L 2.234375 -5.234375 C 2.503906 -5.234375 2.753906 -5.191406 2.984375 -5.109375 C 3.210938 -5.023438 3.410156 -4.90625 3.578125 -4.75 C 3.742188 -4.601562 3.875 -4.425781 3.96875 -4.21875 C 4.0625 -4.007812 4.109375 -3.785156 4.109375 -3.546875 C 4.109375 -3.234375 4.03125 -2.945312 3.875 -2.6875 C 3.726562 -2.4375 3.523438 -2.242188 3.265625 -2.109375 L 4.484375 0 L 3.15625 0 L 2.140625 -1.84375 L 1.734375 -1.84375 L 1.734375 0 L 0.59375 0 Z M 2.171875 -2.84375 C 2.421875 -2.84375 2.613281 -2.90625 2.75 -3.03125 C 2.894531 -3.15625 2.96875 -3.320312 2.96875 -3.53125 C 2.96875 -3.75 2.894531 -3.910156 2.75 -4.015625 C 2.601562 -4.117188 2.410156 -4.171875 2.171875 -4.171875 L 1.734375 -4.171875 L 1.734375 -2.84375 Z M 2.171875 -2.84375 "/></g></g></g><g fill="#fafafa" fill-opacity="1"><g transform="translate(119.45563, 63.955517)"><g><path d="M 0.046875 -5.234375 L 1.234375 -5.234375 L 2.375 -2.125 L 3.53125 -5.234375 L 4.703125 -5.234375 L 2.671875 0.09375 L 2.0625 0.09375 Z M 0.046875 -5.234375 "/></g></g></g><g fill="#fafafa" fill-opacity="1"><g transform="translate(129.12034, 63.955517)"><g><path d="M 0.59375 -5.234375 L 1.734375 -5.234375 L 1.734375 0 L 0.59375 0 Z M 0.59375 -5.234375 "/></g></g></g><g fill="#fafafa" fill-opacity="1"><g transform="translate(136.36422, 63.955517)"><g><path d="M 3 0.109375 C 2.601562 0.109375 2.238281 0.0390625 1.90625 -0.09375 C 1.570312 -0.226562 1.285156 -0.414062 1.046875 -0.65625 C 0.804688 -0.90625 0.617188 -1.195312 0.484375 -1.53125 C 0.347656 -1.863281 0.28125 -2.222656 0.28125 -2.609375 C 0.28125 -3.003906 0.347656 -3.367188 0.484375 -3.703125 C 0.617188 -4.035156 0.804688 -4.320312 1.046875 -4.5625 C 1.296875 -4.8125 1.582031 -5.003906 1.90625 -5.140625 C 2.238281 -5.273438 2.597656 -5.34375 2.984375 -5.34375 C 3.390625 -5.34375 3.765625 -5.265625 4.109375 -5.109375 C 4.460938 -4.953125 4.769531 -4.726562 5.03125 -4.4375 L 4.234375 -3.671875 C 4.078125 -3.847656 3.894531 -3.984375 3.6875 -4.078125 C 3.488281 -4.179688 3.265625 -4.234375 3.015625 -4.234375 C 2.796875 -4.234375 2.59375 -4.191406 2.40625 -4.109375 C 2.21875 -4.035156 2.050781 -3.925781 1.90625 -3.78125 C 1.769531 -3.632812 1.664062 -3.460938 1.59375 -3.265625 C 1.519531 -3.066406 1.484375 -2.851562 1.484375 -2.625 C 1.484375 -2.394531 1.519531 -2.179688 1.59375 -1.984375 C 1.675781 -1.785156 1.785156 -1.613281 1.921875 -1.46875 C 2.054688 -1.320312 2.21875 -1.207031 2.40625 -1.125 C 2.601562 -1.039062 2.816406 -1 3.046875 -1 C 3.296875 -1 3.523438 -1.050781 3.734375 -1.15625 C 3.941406 -1.257812 4.117188 -1.398438 4.265625 -1.578125 L 5.0625 -0.828125 C 4.8125 -0.523438 4.507812 -0.289062 4.15625 -0.125 C 3.8125 0.03125 3.425781 0.109375 3 0.109375 Z M 3 0.109375 "/></g></g></g><g fill="#fafafa" fill-opacity="1"><g transform="translate(146.513097, 63.955517)"><g><path d="M 0.59375 -5.234375 L 3.578125 -5.234375 L 3.578125 -4.171875 L 1.734375 -4.171875 L 1.734375 -3.203125 L 3.078125 -3.203125 L 3.078125 -2.140625 L 1.734375 -2.140625 L 1.734375 -1.078125 L 3.625 -1.078125 L 3.625 0 L 0.59375 0 Z M 0.59375 -5.234375 "/></g></g></g><g fill="#fafafa" fill-opacity="1"><g transform="translate(155.451563, 63.955517)"><g><path d="M 2 0.140625 C 1.59375 0.140625 1.226562 0.0507812 0.90625 -0.125 C 0.582031 -0.3125 0.320312 -0.578125 0.125 -0.921875 L 0.921875 -1.59375 C 1.191406 -1.101562 1.546875 -0.859375 1.984375 -0.859375 C 2.179688 -0.859375 2.34375 -0.90625 2.46875 -1 C 2.59375 -1.101562 2.65625 -1.234375 2.65625 -1.390625 C 2.65625 -1.535156 2.59375 -1.660156 2.46875 -1.765625 C 2.351562 -1.867188 2.140625 -1.988281 1.828125 -2.125 C 1.335938 -2.34375 0.984375 -2.582031 0.765625 -2.84375 C 0.546875 -3.101562 0.4375 -3.414062 0.4375 -3.78125 C 0.4375 -4.007812 0.476562 -4.21875 0.5625 -4.40625 C 0.644531 -4.601562 0.757812 -4.769531 0.90625 -4.90625 C 1.0625 -5.050781 1.242188 -5.160156 1.453125 -5.234375 C 1.660156 -5.304688 1.890625 -5.34375 2.140625 -5.34375 C 2.796875 -5.34375 3.351562 -5.0625 3.8125 -4.5 L 3.0625 -3.8125 C 2.914062 -4 2.769531 -4.140625 2.625 -4.234375 C 2.476562 -4.328125 2.316406 -4.375 2.140625 -4.375 C 1.960938 -4.375 1.820312 -4.328125 1.71875 -4.234375 C 1.625 -4.148438 1.578125 -4.035156 1.578125 -3.890625 C 1.578125 -3.734375 1.644531 -3.601562 1.78125 -3.5 C 1.914062 -3.394531 2.117188 -3.28125 2.390625 -3.15625 C 2.878906 -2.9375 3.234375 -2.691406 3.453125 -2.421875 C 3.679688 -2.160156 3.796875 -1.847656 3.796875 -1.484375 C 3.796875 -1.242188 3.75 -1.023438 3.65625 -0.828125 C 3.570312 -0.628906 3.453125 -0.457031 3.296875 -0.3125 C 3.140625 -0.164062 2.945312 -0.0546875 2.71875 0.015625 C 2.5 0.0976562 2.257812 0.140625 2 0.140625 Z M 2 0.140625 "/></g></g></g></svg>